<svg width="17" height="12" viewBox="0 0 17 12" fill="none" xmlns="http://www.w3.org/2000/svg">
<path id="Cellular Connection" fill-rule="evenodd" clip-rule="evenodd" d="M16 0.666016H15C14.4477 0.666016 14 1.11373 14 1.66602V10.3327C14 10.885 14.4477 11.3327 15 11.3327H16C16.5523 11.3327 17 10.885 17 10.3327V1.66602C17 1.11373 16.5523 0.666016 16 0.666016ZM10.3333 2.99935H11.3333C11.8856 2.99935 12.3333 3.44706 12.3333 3.99935V10.3327C12.3333 10.885 11.8856 11.3327 11.3333 11.3327H10.3333C9.78105 11.3327 9.33333 10.885 9.33333 10.3327V3.99935C9.33333 3.44706 9.78105 2.99935 10.3333 2.99935ZM6.66667 5.33268H5.66667C5.11438 5.33268 4.66667 5.7804 4.66667 6.33268V10.3327C4.66667 10.885 5.11438 11.3327 5.66667 11.3327H6.66667C7.21895 11.3327 7.66667 10.885 7.66667 10.3327V6.33268C7.66667 5.7804 7.21895 5.33268 6.66667 5.33268ZM2 7.33268H1C0.447715 7.33268 0 7.7804 0 8.33268V10.3327C0 10.885 0.447715 11.3327 1 11.3327H2C2.55228 11.3327 3 10.885 3 10.3327V8.33268C3 7.7804 2.55228 7.33268 2 7.33268Z" fill="black"/>
</svg>
