<svg width="16" height="12" viewBox="0 0 16 12" fill="none" xmlns="http://www.w3.org/2000/svg">
<path id="Wifi" fill-rule="evenodd" clip-rule="evenodd" d="M7.66707 2.61456C9.8918 2.61465 12.0315 3.46876 13.6438 5.00036C13.7652 5.1186 13.9593 5.11711 14.0789 4.99701L15.2395 3.82668C15.3 3.76577 15.3338 3.68326 15.3333 3.59741C15.3328 3.51156 15.2981 3.42945 15.2368 3.36925C11.0049 -0.682979 4.32857 -0.682979 0.0966565 3.36925C0.0353544 3.42941 0.000572274 3.51149 6.99859e-06 3.59734C-0.000558277 3.68319 0.0331399 3.76573 0.0936446 3.82668L1.25459 4.99701C1.37409 5.11729 1.56831 5.11878 1.68965 5.00036C3.30221 3.46866 5.44212 2.61455 7.66707 2.61456ZM7.66707 6.42214C8.88942 6.42206 10.0681 6.87602 10.9742 7.69579C11.0968 7.81214 11.2898 7.80961 11.4093 7.69011L12.5685 6.51978C12.6296 6.45839 12.6635 6.37511 12.6626 6.28858C12.6617 6.20204 12.6261 6.11947 12.5639 6.05934C9.8047 3.49493 5.53178 3.49493 2.77262 6.05934C2.7103 6.11947 2.67474 6.20208 2.67392 6.28865C2.6731 6.37521 2.70709 6.45848 2.76827 6.51978L3.92721 7.69011C4.04667 7.80961 4.23972 7.81214 4.36227 7.69579C5.26774 6.87656 6.44553 6.42265 7.66707 6.42214ZM9.98929 8.98398C9.99106 9.07075 9.95692 9.15442 9.89492 9.21521L7.88962 11.2372C7.83084 11.2966 7.75069 11.3301 7.66707 11.3301C7.58345 11.3301 7.5033 11.2966 7.44452 11.2372L5.43888 9.21521C5.37693 9.15437 5.34284 9.07068 5.34468 8.9839C5.34652 8.89713 5.38411 8.81495 5.44859 8.75678C6.72925 7.67451 8.60489 7.67451 9.88555 8.75678C9.94998 8.815 9.98752 8.8972 9.98929 8.98398Z" fill="black"/>
</svg>
